# xmcd
#
# Track frame offsets:
#	150
#	13904
#	31775
#	47457
#	60818
#	72566
#	86378
#	104190
#	119038
#	135470
#	152137
#	165549
#	179571
#	191301
#	205694
#	217857
#
# Disc length: 3029 seconds
#
# Revision: 0
# Processed by: cddbd v1.5.1PL0 Copyright (c) Steve Scherf et al.
# Submitted via: dBpowerAMP V4.0
#
DISCID=d70bd310
DTITLE=Harry Belafonte - In Calypso And Caribbean Music
DYEAR=2003
DGENRE=Blues
TTITLE0=Day O (Bote Bananero)
TTITLE1=Michael The Boat Ashore
TTITLE2=John Henry
TTITLE3=Coconut Woman
TTITLE4=Hold Em Joe
TTITLE5=Jamaica Farewell
TTITLE6=Angelina
TTITLE7=Haiti Cheri
TTITLE8=Matilda
TTITLE9=Jump In The Line
TTITLE10=When The Saints
TTITLE11=Come Back Liza
TTITLE12=Hosanna
TTITLE13=Mon Piaba
TTITLE14=Seratch, Serath
TTITLE15=Star
EXTD=
EXTT0=
EXTT1=
EXTT2=
EXTT3=
EXTT4=
EXTT5=
EXTT6=
EXTT7=
EXTT8=
EXTT9=
EXTT10=
EXTT11=
EXTT12=
EXTT13=
EXTT14=
EXTT15=
PLAYORDER=
